<svg width="427" height="427" viewBox="0 0 427 427" fill="none" xmlns="http://www.w3.org/2000/svg">
<path fill-rule="evenodd" clip-rule="evenodd" d="M426.667 213.333C426.693 262.336 409.73 309.833 378.667 347.733C376.437 350.409 369.253 353.085 362.232 355.7C355.821 358.089 349.547 360.426 347.306 362.666H426.666V405.333H277.333V256H320V351.147C368.946 313.459 394.286 252.678 386.607 191.383C374.642 95.87 287.513 28.141 192 40.107V1.06702C199.04 0 206.08 0 213.333 0C331.154 0 426.667 95.513 426.667 213.333ZM38.5229 214.278C38.8091 310.537 117.074 388.339 213.333 388.053C220.468 387.992 227.593 387.493 234.667 386.559V425.599C227.627 426.666 220.587 426.666 213.334 426.666C162.798 426.583 113.933 408.563 75.4431 375.816C-14.2939 299.468 -25.1479 164.83 51.2 75.093C52.8613 73.0992 57.9736 71.1631 63.0132 69.2545C67.6794 67.4873 72.2832 65.7438 74.0271 64H0V21.333H149.333V170.667H106.666V75.52C63.561 108.619 38.3621 159.931 38.5229 214.278Z" fill="white"/>
</svg>
