<svg width="478" height="410" viewBox="0 0 478 410" fill="none" xmlns="http://www.w3.org/2000/svg">
<path fill-rule="evenodd" clip-rule="evenodd" d="M438.738 5.00403C432.074 -1.66498 421.266 -1.66803 414.597 4.995L341.023 78.501C351.462 83.918 361.597 89.9 371.385 96.421L438.73 29.144C445.398 22.481 445.401 11.673 438.738 5.00403ZM238.93 51.195C109.223 51.195 7.52273 188.906 3.25573 194.777C-1.08524 200.757 -1.08524 208.851 3.25573 214.83C32.2508 252.842 67.0897 286.016 106.475 313.117L167.813 251.78C174.159 261.36 182.365 269.566 191.945 275.912L136.837 331.089C168.157 348.317 203.191 357.687 238.93 358.396C368.637 358.396 470.337 220.702 474.604 214.831C478.944 208.851 478.944 200.756 474.603 194.777C445.608 156.765 410.769 123.591 371.384 96.49L310.046 157.828C303.696 148.247 295.491 140.035 285.914 133.678L167.813 251.779C158.541 237.864 153.595 221.516 153.596 204.794C153.52 157.741 191.603 119.536 238.655 119.46C255.465 119.433 271.908 124.38 285.913 133.677L341.021 78.5C309.702 61.274 274.669 51.903 238.93 51.195ZM310.046 157.828L191.945 275.912C220.487 294.85 257.595 294.853 286.14 275.919C325.352 249.911 336.055 197.039 310.046 157.828ZM39.1298 380.462L106.475 313.168C116.262 319.689 126.398 325.671 136.836 331.089L63.2618 404.612C56.5928 411.275 45.7848 411.272 39.1208 404.603C32.4578 397.934 32.4607 387.126 39.1298 380.462Z" fill="black"/>
</svg>
