<svg width="493" height="410" viewBox="0 0 493 410" fill="none" xmlns="http://www.w3.org/2000/svg">
<path d="M27.982 243.582L27.214 243.414L356.438 243.414L252.942 347.138C247.874 352.202 245.094 359.062 245.094 366.262C245.094 373.462 247.874 380.274 252.942 385.35L269.046 401.462C274.11 406.526 280.858 409.326 288.054 409.326C295.254 409.326 302.006 406.546 307.07 401.482L484.482 224.086C489.566 219.002 492.346 212.23 492.326 205.026C492.346 197.782 489.566 191.006 484.482 185.93L307.07 8.51807C302.006 3.45807 295.258 0.674078 288.054 0.674079C280.858 0.674079 274.11 3.46207 269.046 8.51807L252.942 24.6301C247.874 29.6861 245.094 36.4381 245.094 43.6381C245.094 50.8341 247.874 57.2301 252.942 62.2901L357.606 166.594L27.614 166.594C12.786 166.594 0.32603 179.374 0.326031 194.194L0.326033 216.982C0.326034 231.802 13.154 243.582 27.982 243.582Z" fill="white"/>
</svg>
