<svg width="493" height="410" viewBox="0 0 493 410" fill="none" xmlns="http://www.w3.org/2000/svg">
<path d="M464.67 166.418L465.438 166.586L136.214 166.586L239.71 62.8621C244.778 57.7981 247.558 50.9381 247.558 43.7381C247.558 36.5381 244.778 29.7261 239.71 24.6501L223.606 8.53807C218.542 3.47407 211.794 0.674072 204.598 0.674072C197.398 0.674072 190.646 3.45407 185.582 8.51807L8.17003 185.914C3.08603 190.998 0.306035 197.77 0.326035 204.974C0.306035 212.218 3.08603 218.994 8.17003 224.07L185.582 401.482C190.646 406.542 197.394 409.326 204.598 409.326C211.794 409.326 218.542 406.538 223.606 401.482L239.71 385.37C244.778 380.314 247.558 373.562 247.558 366.362C247.558 359.166 244.778 352.77 239.71 347.71L135.046 243.406L465.038 243.406C479.866 243.406 492.326 230.626 492.326 215.806V193.018C492.326 178.198 479.498 166.418 464.67 166.418Z" fill="white"/>
</svg>
