<svg width="513" height="512" viewBox="0 0 513 512" fill="none" xmlns="http://www.w3.org/2000/svg">
<path d="M511.306 230.771C482.577 124.743 387.416 48.912 276.002 40.745V20C276.002 8.954 267.048 0 256.002 0C244.956 0 236.002 8.954 236.002 20V40.745C124.588 48.912 29.4255 124.743 0.696506 230.771C-0.932494 236.782 0.331506 243.209 4.11551 248.155C7.90151 253.099 13.7745 256 20.0015 256H236.002V457C236.002 465.271 229.273 472 221.002 472C212.731 472 206.002 465.271 206.002 457V416C206.002 404.954 197.048 396 186.002 396C174.956 396 166.002 404.954 166.002 416V457C166.002 487.327 190.675 512 221.002 512C251.329 512 276.002 487.327 276.002 457V256H492.002C498.23 256 504.102 253.099 507.886 248.153C511.671 243.207 512.934 236.78 511.306 230.771ZM47.8865 216C81.3865 134.756 163.425 80 256.002 80C348.579 80 430.617 134.756 464.117 216H47.8865Z" fill="white"/>
</svg>
