<svg width="441" height="512" viewBox="0 0 441 512" fill="none" xmlns="http://www.w3.org/2000/svg">
<path fill-rule="evenodd" clip-rule="evenodd" d="M330.93 4.29688L435.531 107.031C438.402 109.852 440.02 113.707 440.02 117.734V456.031C440.02 486.895 414.91 512 384.051 512H55.9688C25.1055 512 0 486.891 0 456.031V55.9688C0 25.1055 25.1094 0 55.9688 0H320.418C324.352 0 328.125 1.54297 330.93 4.29688ZM388.34 102.734L335.418 50.7578V97.9648C335.418 100.594 337.559 102.734 340.188 102.734H388.34ZM55.9688 482H384.051C398.371 482 410.02 470.352 410.02 456.031V132.734H340.191C321.02 132.734 305.422 117.137 305.422 97.9648V30H55.9688C41.6484 30 30 41.6484 30 55.9688V456.031C30 470.352 41.6523 482 55.9688 482ZM112.691 238H324.145C332.43 238 339.145 244.715 339.145 253C339.145 261.285 332.43 268 324.145 268H112.691C104.406 268 97.6914 261.285 97.6914 253C97.6914 244.715 104.406 238 112.691 238ZM112.691 328H285.105C293.391 328 300.105 321.285 300.105 313C300.105 304.715 293.391 298 285.105 298H112.691C104.406 298 97.6914 304.715 97.6914 313C97.6914 321.285 104.406 328 112.691 328ZM112.691 358H305.906C314.188 358 320.906 364.715 320.906 373C320.906 381.285 314.188 388 305.906 388H112.691C104.406 388 97.6914 381.285 97.6914 373C97.6914 364.715 104.406 358 112.691 358Z" fill="white"/>
</svg>
