<svg width="409" height="492" viewBox="0 0 409 492" fill="none" xmlns="http://www.w3.org/2000/svg">
<path d="M165.744 27.656L165.912 26.888L165.912 356.112L62.188 252.616C57.124 247.548 50.264 244.768 43.064 244.768C35.864 244.768 29.052 247.548 23.976 252.616L7.86399 268.72C2.79999 273.784 -9.24356e-06 280.532 -8.92902e-06 287.728C-8.6143e-06 294.928 2.77999 301.68 7.84399 306.744L185.24 484.156C190.324 489.24 197.096 492.02 204.3 492C211.544 492.02 218.32 489.24 223.396 484.156L400.808 306.744C405.868 301.68 408.652 294.932 408.652 287.728C408.652 280.532 405.864 273.784 400.808 268.72L384.696 252.616C379.64 247.548 372.888 244.768 365.688 244.768C358.492 244.768 352.096 247.548 347.036 252.616L242.732 357.28L242.732 27.288C242.732 12.46 229.952 -1.00515e-05 215.132 -9.40372e-06L192.344 -8.40762e-06C177.524 -7.75982e-06 165.744 12.828 165.744 27.656Z" fill="white"/>
</svg>
