<svg width="432" height="512" viewBox="0 0 432 512" fill="none" xmlns="http://www.w3.org/2000/svg">
<path d="M419.669 82.9059L223.669 1.52888C218.759 -0.509125 213.24 -0.510125 208.331 1.52888L12.331 82.9059C4.866 86.0059 0 93.2939 0 101.377V200.302C0 336.515 82.329 459.042 208.442 510.517C213.286 512.494 218.713 512.494 223.558 510.517C349.669 459.043 432 336.516 432 200.302V101.377C432 93.2939 427.135 86.0059 419.669 82.9059ZM392 200.302C392 316.097 324 422.694 216 470.276C110.886 423.965 40 319.235 40 200.302V114.729L216 41.6549L392 114.729V200.302ZM193.894 267.716L279.858 181.753C287.668 173.943 300.331 173.942 308.142 181.753C315.953 189.564 315.952 202.227 308.141 210.037L208.036 310.142C200.224 317.954 187.561 317.951 179.752 310.142L123.858 254.248C116.047 246.437 116.047 233.774 123.858 225.964C131.669 218.154 144.332 218.153 152.142 225.964L193.894 267.716Z" fill="white"/>
</svg>
