<svg width="485" height="512" viewBox="0 0 485 512" fill="none" xmlns="http://www.w3.org/2000/svg">
<path fill-rule="evenodd" clip-rule="evenodd" d="M419.974 266.514C445.444 248.804 462.152 219.333 462.152 186.029C462.152 147.984 440.353 114.936 408.59 98.715C392.943 70.12 370.167 45.963 342.431 28.652C312.397 9.90802 277.723 0 242.158 0C206.593 0 171.919 9.90802 141.885 28.652C114.148 45.962 91.3721 70.12 75.7261 98.715C43.9629 114.936 22.1641 147.984 22.1641 186.029C22.1641 219.333 38.8721 248.804 64.342 266.514L0 305.343L89.6221 453.855L135.275 426.305C146.172 475.274 189.954 512 242.158 512C294.362 512 338.144 475.274 349.041 426.304L394.694 453.854L484.316 305.343L419.974 266.514ZM242.158 30C290.662 30 335.432 51.631 365.376 88.073C364.978 88.068 364.581 88.058 364.182 88.058H120.135C119.736 88.058 119.339 88.068 118.941 88.073C148.884 51.631 193.654 30 242.158 30ZM52.1641 186.029C52.1641 148.549 82.655 118.058 120.135 118.058H364.182C401.661 118.058 432.153 148.55 432.153 186.03C432.153 223.51 401.661 254 364.181 254C328.937 254 299.185 226.503 296.445 191.399L295.365 177.566H188.95L187.87 191.399C185.131 226.503 155.378 254 120.135 254C82.655 254 52.1641 223.509 52.1641 186.029ZM133.12 392.566L99.8091 412.669L41.186 315.528L76.71 294.09C91.377 326.662 111.74 356.305 135.224 378.945C134.245 383.391 133.538 387.937 133.12 392.566ZM242.158 482C198.324 482 162.663 446.339 162.663 402.505C162.663 358.671 198.324 323.01 242.158 323.01C285.992 323.01 321.653 358.671 321.653 402.505C321.653 446.339 285.992 482 242.158 482ZM337.2 348.181C318.302 315.244 282.778 293.01 242.158 293.01C201.538 293.01 166.014 315.244 147.115 348.181C130.285 329.792 115.62 307.254 104.49 282.746C109.586 283.567 114.81 284 120.134 284C144.955 284 168.631 274.697 186.799 257.806C201.412 244.219 211.404 226.735 215.701 207.567H268.614C272.911 226.735 282.903 244.219 297.516 257.806C315.684 274.697 339.36 284 364.181 284C369.505 284 374.729 283.567 379.825 282.746C368.695 307.254 354.03 329.792 337.2 348.181ZM384.509 412.669L351.197 392.566C350.779 387.937 350.071 383.391 349.093 378.945C372.577 356.305 392.94 326.662 407.607 294.09L443.131 315.528L384.509 412.669ZM211.988 394.883C221.285 394.883 228.821 387.347 228.821 378.05C228.821 368.753 221.285 361.217 211.988 361.217C202.691 361.217 195.155 368.753 195.155 378.05C195.155 387.347 202.691 394.883 211.988 394.883ZM289.161 378.05C289.161 387.347 281.625 394.883 272.328 394.883C263.031 394.883 255.495 387.347 255.495 378.05C255.495 368.753 263.031 361.217 272.328 361.217C281.625 361.217 289.161 368.753 289.161 378.05ZM211.988 450.093C221.285 450.093 228.821 442.557 228.821 433.26C228.821 423.963 221.285 416.427 211.988 416.427C202.691 416.427 195.155 423.963 195.155 433.26C195.155 442.557 202.691 450.093 211.988 450.093ZM289.161 433.26C289.161 442.557 281.625 450.093 272.328 450.093C263.031 450.093 255.495 442.557 255.495 433.26C255.495 423.963 263.031 416.427 272.328 416.427C281.625 416.427 289.161 423.963 289.161 433.26Z" fill="white"/>
</svg>
