<svg width="470" height="470" viewBox="0 0 470 470" fill="none" xmlns="http://www.w3.org/2000/svg">
<path d="M234.667 149.333C187.52 149.333 149.334 187.52 149.334 234.666C149.334 281.812 187.52 320 234.667 320C281.814 320 320 281.813 320 234.667C320 187.521 281.813 149.333 234.667 149.333Z" fill="white"/>
<path d="M425.387 213.333C415.573 124.373 344.96 53.76 256 43.947V0H213.333V43.947C124.373 53.76 53.76 124.373 43.947 213.333H0V256H43.947C53.76 344.96 124.374 415.573 213.334 425.387V469.334H256V425.387C344.96 415.573 415.573 344.96 425.387 256H469.334V213.333H425.387ZM234.667 384C152.214 384 85.334 317.12 85.334 234.667C85.334 152.214 152.214 85.334 234.667 85.334C317.12 85.334 384 152.213 384 234.667C384 317.121 317.12 384 234.667 384Z" fill="white"/>
</svg>
