<svg width="512" height="352" viewBox="0 0 512 352" fill="none" xmlns="http://www.w3.org/2000/svg">
<path fill-rule="evenodd" clip-rule="evenodd" d="M114.416 0H397.952C434.368 0 464 29.824 464 66.464V112H466C490.944 112 512 133.52 512 159.008V252.176C512 287.936 483.766 317.307 448.096 319.825V335.68C448.096 344.528 440.928 351.68 432.096 351.68H415.84C407.008 351.68 399.84 344.512 399.84 335.68V320H111.552V335.68C111.568 344.528 104.4 351.68 95.568 351.68H80.128C71.296 351.68 64.128 344.512 64.128 335.68V319.822C32.6425 317.557 7.00581 293.904 1.82165 263.418C0.658277 261.2 0 258.677 0 256V160.56C0 134.299 21.9649 112.1 48 112V66.464C48 30.432 78.416 0 114.416 0ZM400 159.008C400 138.294 413.695 120.201 432 114.15V66.464C432 47.776 416.4 32 397.952 32H114.416C95.76 32 80 47.776 80 66.464V114.674C98.3947 121.339 112 139.663 112 160.56V208H400V159.008ZM432 224C432 232.832 424.832 240 416 240H96C87.168 240 80 232.832 80 224V160.56C80 151.744 72.928 144 64.864 144H64H48.176C39.856 144 32 152.048 32 160.56V246.835C32.56 248.465 32.864 250.213 32.864 252.032C32.864 271.872 49.12 288 69.088 288H443.12C463.456 288 480 271.936 480 252.176V159.008C480 151.44 473.056 144 466 144H448H445.28C438.448 144 432 151.296 432 159.008V224Z" fill="white"/>
</svg>
