<svg width="409" height="492" viewBox="0 0 409 492" fill="none" xmlns="http://www.w3.org/2000/svg">
<path d="M242.908 464.344L242.74 465.112L242.74 135.888L346.464 239.384C351.528 244.452 358.388 247.232 365.588 247.232C372.788 247.232 379.6 244.452 384.676 239.384L400.788 223.28C405.852 218.216 408.652 211.468 408.652 204.272C408.652 197.072 405.872 190.32 400.808 185.256L223.412 7.84411C218.328 2.76011 211.556 -0.0198905 204.352 0.000109602C197.108 -0.0198903 190.332 2.76011 185.256 7.84411L7.84387 185.256C2.78388 190.32 -0.00011972 197.068 -0.000119634 204.272C-0.000119549 211.468 2.78787 218.216 7.84387 223.28L23.9559 239.384C29.0119 244.452 35.7639 247.232 42.9639 247.232C50.1599 247.232 56.5559 244.452 61.6159 239.384L165.92 134.72L165.92 464.712C165.92 479.54 178.7 492 193.52 492L216.308 492C231.128 492 242.908 479.172 242.908 464.344Z" fill="white"/>
</svg>
